<?xml version='1.0' encoding='utf-8'?>
<mlt LC_NUMERIC="C" producer="main_bin" version="7.3.0" root="C:/Users/joepv/pws_presentatie">
 <profile frame_rate_num="60" sample_aspect_num="1" display_aspect_den="9" colorspace="709" progressive="1" description="HD 1080p 60 fps" display_aspect_num="16" frame_rate_den="1" width="1920" height="1080" sample_aspect_den="1"/>
 <producer id="producer2" in="00:00:00.000" out="00:02:08.000">
  <property name="length">00:02:08.040</property>
  <property name="eof">pause</property>
  <property name="resource">C:/Users/joepv/OneDrive - Nuovo/PWS 2021 Joep Sam/Intro + roosterprobleem0001.mkv</property>
  <property name="meta.media.nb_streams">1</property>
  <property name="meta.media.0.stream.type">audio</property>
  <property name="meta.media.0.codec.sample_fmt">flt</property>
  <property name="meta.media.0.codec.sample_rate">48000</property>
  <property name="meta.media.0.codec.channels">1</property>
  <property name="meta.media.0.codec.name">pcm_f32le</property>
  <property name="meta.media.0.codec.long_name">PCM 32-bit floating point little-endian</property>
  <property name="meta.media.0.codec.bit_rate">1536000</property>
  <property name="meta.attr.0.stream.ENCODER.markup">Lavc58.54.100 pcm_f32le</property>
  <property name="meta.attr.0.stream.DURATION.markup">00:02:08.021000000</property>
  <property name="meta.attr.ENCODER.markup">Lavf58.29.100</property>
  <property name="seekable">1</property>
  <property name="audio_index">0</property>
  <property name="video_index">-1</property>
  <property name="mute_on_pause">1</property>
  <property name="mlt_service">avformat</property>
  <property name="kdenlive:clipname"/>
  <property name="kdenlive:proxy">-</property>
  <property name="kdenlive:originalurl">C:/Users/joepv/OneDrive - Nuovo/PWS 2021 Joep Sam/Intro + roosterprobleem0001.mkv</property>
  <property name="kdenlive:id">2</property>
  <property name="kdenlive:file_size">24623207</property>
  <property name="kdenlive:file_hash">5f420d828645ed1b6167a789211cbbb3</property>
  <property name="kdenlive:folderid">-1</property>
  <property name="kdenlive:audio_max0">216</property>
 </producer>
 <producer id="producer0" in="00:00:00.000" out="00:01:18.517">
  <property name="length">00:01:18.560</property>
  <property name="eof">pause</property>
  <property name="resource">C:/Users/joepv/OneDrive - Nuovo/PWS 2021 Joep Sam/pws_presentatie_roosteringsmachine_en_graventheorie.wav</property>
  <property name="meta.media.nb_streams">1</property>
  <property name="meta.media.0.stream.type">audio</property>
  <property name="meta.media.0.codec.sample_fmt">s16</property>
  <property name="meta.media.0.codec.sample_rate">44100</property>
  <property name="meta.media.0.codec.channels">2</property>
  <property name="meta.media.0.codec.name">pcm_s16le</property>
  <property name="meta.media.0.codec.long_name">PCM signed 16-bit little-endian</property>
  <property name="meta.media.0.codec.bit_rate">1411200</property>
  <property name="seekable">1</property>
  <property name="audio_index">0</property>
  <property name="video_index">-1</property>
  <property name="mute_on_pause">1</property>
  <property name="mlt_service">avformat</property>
  <property name="kdenlive:clipname"/>
  <property name="kdenlive:proxy">-</property>
  <property name="kdenlive:originalurl">C:/Users/joepv/OneDrive - Nuovo/PWS 2021 Joep Sam/pws_presentatie_roosteringsmachine_en_graventheorie.wav</property>
  <property name="kdenlive:id">4</property>
  <property name="kdenlive:file_size">13854764</property>
  <property name="kdenlive:file_hash">8b9bfc1e9b3d6c26fa6b389ceb3c2408</property>
  <property name="kdenlive:folderid">-1</property>
  <property name="kdenlive:audio_max0">211</property>
 </producer>
 <producer id="producer1" in="00:00:00.000" out="00:01:59.317">
  <property name="length">00:01:59.360</property>
  <property name="eof">pause</property>
  <property name="resource">C:/Users/joepv/OneDrive - Nuovo/PWS 2021 Joep Sam/pws_presentatie_lineair_programmeren.wav</property>
  <property name="meta.media.nb_streams">1</property>
  <property name="meta.media.0.stream.type">audio</property>
  <property name="meta.media.0.codec.sample_fmt">s16</property>
  <property name="meta.media.0.codec.sample_rate">44100</property>
  <property name="meta.media.0.codec.channels">2</property>
  <property name="meta.media.0.codec.name">pcm_s16le</property>
  <property name="meta.media.0.codec.long_name">PCM signed 16-bit little-endian</property>
  <property name="meta.media.0.codec.bit_rate">1411200</property>
  <property name="seekable">1</property>
  <property name="audio_index">0</property>
  <property name="video_index">-1</property>
  <property name="mute_on_pause">1</property>
  <property name="mlt_service">avformat</property>
  <property name="kdenlive:clipname"/>
  <property name="kdenlive:proxy">-</property>
  <property name="kdenlive:originalurl">C:/Users/joepv/OneDrive - Nuovo/PWS 2021 Joep Sam/pws_presentatie_lineair_programmeren.wav</property>
  <property name="kdenlive:id">5</property>
  <property name="kdenlive:file_size">21051676</property>
  <property name="kdenlive:file_hash">cd9344ed4a563fc985905139f955335d</property>
  <property name="kdenlive:folderid">-1</property>
  <property name="kdenlive:audio_max0">223</property>
 </producer>
 <producer id="producer3" in="00:00:00.000" out="00:00:35.833">
  <property name="length">00:00:35.880</property>
  <property name="eof">pause</property>
  <property name="resource">C:/Users/joepv/OneDrive - Nuovo/PWS 2021 Joep Sam/pws_presentatie_roostermachine.wav</property>
  <property name="meta.media.nb_streams">1</property>
  <property name="meta.media.0.stream.type">audio</property>
  <property name="meta.media.0.codec.sample_fmt">s16</property>
  <property name="meta.media.0.codec.sample_rate">44100</property>
  <property name="meta.media.0.codec.channels">2</property>
  <property name="meta.media.0.codec.name">pcm_s16le</property>
  <property name="meta.media.0.codec.long_name">PCM signed 16-bit little-endian</property>
  <property name="meta.media.0.codec.bit_rate">1411200</property>
  <property name="seekable">1</property>
  <property name="audio_index">0</property>
  <property name="video_index">-1</property>
  <property name="mute_on_pause">1</property>
  <property name="mlt_service">avformat</property>
  <property name="kdenlive:clipname"/>
  <property name="kdenlive:folderid">-1</property>
  <property name="kdenlive:id">6</property>
  <property name="kdenlive:file_size">6325912</property>
  <property name="kdenlive:file_hash">a40761760c0695393d67554fca316732</property>
  <property name="kdenlive:audio_max0">224</property>
 </producer>
 <producer id="producer5" in="00:00:00.000" out="00:01:53.083">
  <property name="length">00:01:53.120</property>
  <property name="eof">pause</property>
  <property name="resource">C:/Users/joepv/OneDrive - Nuovo/PWS 2021 Joep Sam/pws_presentatie_discussie0001.mkv</property>
  <property name="meta.media.nb_streams">1</property>
  <property name="meta.media.0.stream.type">audio</property>
  <property name="meta.media.0.codec.sample_fmt">flt</property>
  <property name="meta.media.0.codec.sample_rate">48000</property>
  <property name="meta.media.0.codec.channels">1</property>
  <property name="meta.media.0.codec.name">pcm_f32le</property>
  <property name="meta.media.0.codec.long_name">PCM 32-bit floating point little-endian</property>
  <property name="meta.media.0.codec.bit_rate">1536000</property>
  <property name="meta.attr.0.stream.ENCODER.markup">Lavc58.134.100 pcm_f32le</property>
  <property name="meta.attr.0.stream.DURATION.markup">00:01:53.109000000</property>
  <property name="meta.attr.ENCODER.markup">Lavf58.76.100</property>
  <property name="seekable">1</property>
  <property name="audio_index">0</property>
  <property name="video_index">-1</property>
  <property name="mute_on_pause">1</property>
  <property name="mlt_service">avformat</property>
  <property name="kdenlive:clipname">pws_presentatie_discussie0001.mkv</property>
  <property name="kdenlive:folderid">-1</property>
  <property name="kdenlive:id">7</property>
  <property name="kdenlive:file_size">21755512</property>
  <property name="kdenlive:audio_max0">205</property>
  <property name="kdenlive:file_hash">978a9c9509b5e9c04da87323295889d0</property>
 </producer>
 <producer id="producer6" in="00:00:00.000" out="00:01:02.600">
  <property name="length">3757</property>
  <property name="eof">pause</property>
  <property name="resource">C:/Users/joepv/OneDrive - Nuovo/PWS 2021 Joep Sam/pws_resultaten0001.mkv</property>
  <property name="meta.media.nb_streams">1</property>
  <property name="meta.media.0.stream.type">audio</property>
  <property name="meta.media.0.codec.sample_fmt">flt</property>
  <property name="meta.media.0.codec.sample_rate">48000</property>
  <property name="meta.media.0.codec.channels">1</property>
  <property name="meta.media.0.codec.name">pcm_f32le</property>
  <property name="meta.media.0.codec.long_name">PCM 32-bit floating point little-endian</property>
  <property name="meta.media.0.codec.bit_rate">1536000</property>
  <property name="meta.attr.0.stream.ENCODER.markup">Lavc58.134.100 pcm_f32le</property>
  <property name="meta.attr.0.stream.DURATION.markup">00:01:02.613000000</property>
  <property name="meta.attr.ENCODER.markup">Lavf58.76.100</property>
  <property name="seekable">1</property>
  <property name="audio_index">0</property>
  <property name="video_index">-1</property>
  <property name="mute_on_pause">1</property>
  <property name="mlt_service">avformat</property>
  <property name="kdenlive:clipname">pws_resultaten0001.mkv</property>
  <property name="kdenlive:folderid">-1</property>
  <property name="kdenlive:id">8</property>
  <property name="kdenlive:file_size">12043328</property>
  <property name="kdenlive:audio_max0">228</property>
  <property name="kdenlive:zone_in">0</property>
  <property name="kdenlive:zone_out">3757</property>
  <property name="kdenlive:file_hash">d7f057279079a17851fc78c738969c1b</property>
 </producer>
 <producer id="producer7" in="00:00:00.000" out="00:01:53.100">
  <property name="length">6787</property>
  <property name="eof">pause</property>
  <property name="resource">C:/Users/joepv/OneDrive - Nuovo/PWS 2021 Joep Sam/pws_discussie0001.mkv</property>
  <property name="meta.media.nb_streams">1</property>
  <property name="meta.media.0.stream.type">audio</property>
  <property name="meta.media.0.codec.sample_fmt">flt</property>
  <property name="meta.media.0.codec.sample_rate">48000</property>
  <property name="meta.media.0.codec.channels">1</property>
  <property name="meta.media.0.codec.name">pcm_f32le</property>
  <property name="meta.media.0.codec.long_name">PCM 32-bit floating point little-endian</property>
  <property name="meta.media.0.codec.bit_rate">1536000</property>
  <property name="meta.attr.0.stream.ENCODER.markup">Lavc58.134.100 pcm_f32le</property>
  <property name="meta.attr.0.stream.DURATION.markup">00:01:53.109000000</property>
  <property name="meta.attr.ENCODER.markup">Lavf58.76.100</property>
  <property name="seekable">1</property>
  <property name="audio_index">0</property>
  <property name="video_index">-1</property>
  <property name="mute_on_pause">1</property>
  <property name="mlt_service">avformat</property>
  <property name="kdenlive:clipname">pws_discussie0001.mkv</property>
  <property name="kdenlive:folderid">-1</property>
  <property name="kdenlive:id">9</property>
  <property name="kdenlive:file_size">21755512</property>
  <property name="kdenlive:audio_max0">205</property>
  <property name="kdenlive:file_hash">8ba09d65bb54742a037d15cf435b193e</property>
 </producer>
 <producer id="producer4" in="00:00:00.000" out="00:01:14.700">
  <property name="length">4483</property>
  <property name="eof">pause</property>
  <property name="resource">C:/Users/joepv/Downloads/pws_conclusie.ogg</property>
  <property name="meta.media.nb_streams">1</property>
  <property name="meta.media.0.stream.type">audio</property>
  <property name="meta.media.0.codec.sample_fmt">fltp</property>
  <property name="meta.media.0.codec.sample_rate">48000</property>
  <property name="meta.media.0.codec.channels">1</property>
  <property name="meta.media.0.codec.name">opus</property>
  <property name="meta.media.0.codec.long_name">Opus</property>
  <property name="meta.media.0.codec.bit_rate">0</property>
  <property name="seekable">1</property>
  <property name="audio_index">0</property>
  <property name="video_index">-1</property>
  <property name="mute_on_pause">1</property>
  <property name="mlt_service">avformat</property>
  <property name="kdenlive:clipname"/>
  <property name="kdenlive:folderid">-1</property>
  <property name="kdenlive:id">10</property>
  <property name="kdenlive:file_size">162545</property>
  <property name="kdenlive:file_hash">10c0f3132e1c70a5e217c52b1f3a0fb2</property>
  <property name="kdenlive:audio_max0">196</property>
 </producer>
 <producer id="producer8" in="00:00:00.000" out="00:08:58.583">
  <property name="length">32316</property>
  <property name="eof">pause</property>
  <property name="resource">videos/Presentation.mp4</property>
  <property name="audio_index">-1</property>
  <property name="video_index">0</property>
  <property name="mute_on_pause">0</property>
  <property name="mlt_service">avformat-novalidate</property>
  <property name="seekable">1</property>
  <property name="aspect_ratio">1</property>
  <property name="kdenlive:clipname"/>
  <property name="kdenlive:folderid">-1</property>
  <property name="kdenlive:id">3</property>
  <property name="kdenlive:file_size">2004540</property>
  <property name="kdenlive:orig_service">avformat-novalidate</property>
  <property name="kdenlive:file_hash">9f14b0a26964e47978135c8ae2a9863a</property>
  <property name="meta.media.nb_streams">1</property>
  <property name="meta.media.0.stream.type">video</property>
  <property name="meta.media.0.stream.frame_rate">15</property>
  <property name="meta.media.0.stream.sample_aspect_ratio">0</property>
  <property name="meta.media.0.codec.width">854</property>
  <property name="meta.media.0.codec.height">480</property>
  <property name="meta.media.0.codec.rotate">0</property>
  <property name="meta.media.0.codec.pix_fmt">yuv420p</property>
  <property name="meta.media.0.codec.sample_aspect_ratio">0</property>
  <property name="meta.media.0.codec.colorspace">601</property>
  <property name="meta.media.0.codec.name">h264</property>
  <property name="meta.media.0.codec.long_name">H.264 / AVC / MPEG-4 AVC / MPEG-4 part 10</property>
  <property name="meta.media.0.codec.bit_rate">28367</property>
  <property name="meta.attr.0.stream.handler_name.markup">VideoHandler</property>
  <property name="meta.attr.0.stream.vendor_id.markup">[0][0][0][0]</property>
  <property name="meta.attr.major_brand.markup">isom</property>
  <property name="meta.attr.minor_version.markup">512</property>
  <property name="meta.attr.compatible_brands.markup">isomiso2avc1mp41</property>
  <property name="meta.attr.encoder.markup">Lavf59.10.100</property>
  <property name="meta.media.sample_aspect_num">1</property>
  <property name="meta.media.sample_aspect_den">1</property>
  <property name="meta.media.frame_rate_num">15</property>
  <property name="meta.media.frame_rate_den">1</property>
  <property name="meta.media.colorspace">601</property>
  <property name="meta.media.color_trc">2</property>
  <property name="meta.media.has_b_frames">2</property>
  <property name="meta.media.width">854</property>
  <property name="meta.media.height">480</property>
  <property name="meta.media.color_range">mpeg</property>
  <property name="meta.media.top_field_first">0</property>
  <property name="meta.media.progressive">1</property>
 </producer>
 <playlist id="main_bin">
  <property name="kdenlive:docproperties.activeTrack">1</property>
  <property name="kdenlive:docproperties.audioChannels">2</property>
  <property name="kdenlive:docproperties.audioTarget">-1</property>
  <property name="kdenlive:docproperties.disablepreview">0</property>
  <property name="kdenlive:docproperties.documentid">1640296867073</property>
  <property name="kdenlive:docproperties.enableTimelineZone">0</property>
  <property name="kdenlive:docproperties.enableexternalproxy">0</property>
  <property name="kdenlive:docproperties.enableproxy">0</property>
  <property name="kdenlive:docproperties.externalproxyparams"/>
  <property name="kdenlive:docproperties.generateimageproxy">0</property>
  <property name="kdenlive:docproperties.generateproxy">0</property>
  <property name="kdenlive:docproperties.groups">[
]
</property>
  <property name="kdenlive:docproperties.guides">[&#xd;&#xd;&#xd;&#xd;
]&#xd;&#xd;&#xd;&#xd;
</property>
  <property name="kdenlive:docproperties.kdenliveversion">21.12.0</property>
  <property name="kdenlive:docproperties.position">32320</property>
  <property name="kdenlive:docproperties.previewextension"/>
  <property name="kdenlive:docproperties.previewparameters"/>
  <property name="kdenlive:docproperties.profile">atsc_1080p_60</property>
  <property name="kdenlive:docproperties.proxyextension"/>
  <property name="kdenlive:docproperties.proxyimageminsize">2000</property>
  <property name="kdenlive:docproperties.proxyimagesize">800</property>
  <property name="kdenlive:docproperties.proxyminsize">1000</property>
  <property name="kdenlive:docproperties.proxyparams"/>
  <property name="kdenlive:docproperties.proxyresize">640</property>
  <property name="kdenlive:docproperties.renderaudioquality">256</property>
  <property name="kdenlive:docproperties.rendercategory">Generic (HD for web, mobile devices...)</property>
  <property name="kdenlive:docproperties.renderendguide">-1</property>
  <property name="kdenlive:docproperties.renderexportaudio">0</property>
  <property name="kdenlive:docproperties.renderfield">0</property>
  <property name="kdenlive:docproperties.renderguide">0</property>
  <property name="kdenlive:docproperties.renderplay">0</property>
  <property name="kdenlive:docproperties.renderprofile">MP4-H264/AAC</property>
  <property name="kdenlive:docproperties.renderquality">15</property>
  <property name="kdenlive:docproperties.renderratio">1</property>
  <property name="kdenlive:docproperties.renderrescale">0</property>
  <property name="kdenlive:docproperties.renderrescaleheight">540</property>
  <property name="kdenlive:docproperties.renderrescalewidth">960</property>
  <property name="kdenlive:docproperties.renderscanning">0</property>
  <property name="kdenlive:docproperties.renderspeed">2</property>
  <property name="kdenlive:docproperties.renderstartguide">-1</property>
  <property name="kdenlive:docproperties.rendertcoverlay">0</property>
  <property name="kdenlive:docproperties.rendertctype">0</property>
  <property name="kdenlive:docproperties.rendertwopass">0</property>
  <property name="kdenlive:docproperties.renderurl">C:/Users/joepv/Videos/pws_presentatie.mp4</property>
  <property name="kdenlive:docproperties.renderzone">0</property>
  <property name="kdenlive:docproperties.scrollPos">0</property>
  <property name="kdenlive:docproperties.seekOffset">30000</property>
  <property name="kdenlive:docproperties.version">1.04</property>
  <property name="kdenlive:docproperties.verticalzoom">1</property>
  <property name="kdenlive:docproperties.videoTarget">1</property>
  <property name="kdenlive:docproperties.zonein">0</property>
  <property name="kdenlive:docproperties.zoneout">75</property>
  <property name="kdenlive:docproperties.zoom">15</property>
  <property name="kdenlive:expandedFolders"/>
  <property name="kdenlive:documentnotes"/>
  <property name="xml_retain">1</property>
  <entry producer="producer2" in="00:00:00.000" out="00:02:08.000"/>
  <entry producer="producer0" in="00:00:00.000" out="00:01:18.517"/>
  <entry producer="producer1" in="00:00:00.000" out="00:01:59.317"/>
  <entry producer="producer3" in="00:00:00.000" out="00:00:35.833"/>
  <entry producer="producer5" in="00:00:00.000" out="00:01:53.083"/>
  <entry producer="producer6" in="00:00:00.000" out="00:01:02.600"/>
  <entry producer="producer7" in="00:00:00.000" out="00:01:53.100"/>
  <entry producer="producer4" in="00:00:00.000" out="00:01:14.700"/>
  <entry producer="producer8" in="00:00:00.000" out="00:08:58.583"/>
 </playlist>
 <producer id="black_track" in="00:00:00.000" out="00:17:18.667">
  <property name="length">2147483647</property>
  <property name="eof">continue</property>
  <property name="resource">black</property>
  <property name="aspect_ratio">1</property>
  <property name="mlt_service">color</property>
  <property name="mlt_image_format">rgb24a</property>
  <property name="set.test_audio">0</property>
 </producer>
 <producer id="producer9" in="00:00:00.000" out="00:02:08.000">
  <property name="length">00:02:08.040</property>
  <property name="eof">pause</property>
  <property name="resource">C:/Users/joepv/OneDrive - Nuovo/PWS 2021 Joep Sam/Intro + roosterprobleem0001.mkv</property>
  <property name="audio_index">0</property>
  <property name="video_index">-1</property>
  <property name="mute_on_pause">0</property>
  <property name="mlt_service">avformat-novalidate</property>
  <property name="meta.media.nb_streams">1</property>
  <property name="meta.media.0.stream.type">audio</property>
  <property name="meta.media.0.codec.sample_fmt">flt</property>
  <property name="meta.media.0.codec.sample_rate">48000</property>
  <property name="meta.media.0.codec.channels">1</property>
  <property name="meta.media.0.codec.name">pcm_f32le</property>
  <property name="meta.media.0.codec.long_name">PCM 32-bit floating point little-endian</property>
  <property name="meta.media.0.codec.bit_rate">1536000</property>
  <property name="meta.attr.0.stream.ENCODER.markup">Lavc58.54.100 pcm_f32le</property>
  <property name="meta.attr.0.stream.DURATION.markup">00:02:08.021000000</property>
  <property name="meta.attr.ENCODER.markup">Lavf58.29.100</property>
  <property name="seekable">1</property>
  <property name="kdenlive:clipname"/>
  <property name="kdenlive:proxy">-</property>
  <property name="kdenlive:originalurl">C:/Users/joepv/OneDrive - Nuovo/PWS 2021 Joep Sam/Intro + roosterprobleem0001.mkv</property>
  <property name="kdenlive:id">2</property>
  <property name="kdenlive:file_size">24623207</property>
  <property name="kdenlive:file_hash">5f420d828645ed1b6167a789211cbbb3</property>
  <property name="kdenlive:folderid">-1</property>
  <property name="xml">was here</property>
  <property name="set.test_audio">0</property>
  <property name="set.test_image">1</property>
 </producer>
 <producer id="producer10" in="00:00:00.000" out="00:01:18.517">
  <property name="length">00:01:18.560</property>
  <property name="eof">pause</property>
  <property name="resource">C:/Users/joepv/OneDrive - Nuovo/PWS 2021 Joep Sam/pws_presentatie_roosteringsmachine_en_graventheorie.wav</property>
  <property name="audio_index">0</property>
  <property name="video_index">-1</property>
  <property name="mute_on_pause">0</property>
  <property name="mlt_service">avformat-novalidate</property>
  <property name="meta.media.nb_streams">1</property>
  <property name="meta.media.0.stream.type">audio</property>
  <property name="meta.media.0.codec.sample_fmt">s16</property>
  <property name="meta.media.0.codec.sample_rate">44100</property>
  <property name="meta.media.0.codec.channels">2</property>
  <property name="meta.media.0.codec.name">pcm_s16le</property>
  <property name="meta.media.0.codec.long_name">PCM signed 16-bit little-endian</property>
  <property name="meta.media.0.codec.bit_rate">1411200</property>
  <property name="seekable">1</property>
  <property name="kdenlive:clipname"/>
  <property name="kdenlive:proxy">-</property>
  <property name="kdenlive:originalurl">C:/Users/joepv/OneDrive - Nuovo/PWS 2021 Joep Sam/pws_presentatie_roosteringsmachine_en_graventheorie.wav</property>
  <property name="kdenlive:id">4</property>
  <property name="kdenlive:file_size">13854764</property>
  <property name="kdenlive:file_hash">8b9bfc1e9b3d6c26fa6b389ceb3c2408</property>
  <property name="kdenlive:folderid">-1</property>
  <property name="xml">was here</property>
  <property name="set.test_audio">0</property>
  <property name="set.test_image">1</property>
 </producer>
 <producer id="producer11" in="00:00:00.000" out="00:01:59.317">
  <property name="length">00:01:59.360</property>
  <property name="eof">pause</property>
  <property name="resource">C:/Users/joepv/OneDrive - Nuovo/PWS 2021 Joep Sam/pws_presentatie_lineair_programmeren.wav</property>
  <property name="audio_index">0</property>
  <property name="video_index">-1</property>
  <property name="mute_on_pause">0</property>
  <property name="mlt_service">avformat-novalidate</property>
  <property name="meta.media.nb_streams">1</property>
  <property name="meta.media.0.stream.type">audio</property>
  <property name="meta.media.0.codec.sample_fmt">s16</property>
  <property name="meta.media.0.codec.sample_rate">44100</property>
  <property name="meta.media.0.codec.channels">2</property>
  <property name="meta.media.0.codec.name">pcm_s16le</property>
  <property name="meta.media.0.codec.long_name">PCM signed 16-bit little-endian</property>
  <property name="meta.media.0.codec.bit_rate">1411200</property>
  <property name="seekable">1</property>
  <property name="kdenlive:clipname"/>
  <property name="kdenlive:proxy">-</property>
  <property name="kdenlive:originalurl">C:/Users/joepv/OneDrive - Nuovo/PWS 2021 Joep Sam/pws_presentatie_lineair_programmeren.wav</property>
  <property name="kdenlive:id">5</property>
  <property name="kdenlive:file_size">21051676</property>
  <property name="kdenlive:file_hash">cd9344ed4a563fc985905139f955335d</property>
  <property name="kdenlive:folderid">-1</property>
  <property name="xml">was here</property>
  <property name="set.test_audio">0</property>
  <property name="set.test_image">1</property>
 </producer>
 <producer id="producer12" in="00:00:00.000" out="00:00:35.833">
  <property name="length">00:00:35.880</property>
  <property name="eof">pause</property>
  <property name="resource">C:/Users/joepv/OneDrive - Nuovo/PWS 2021 Joep Sam/pws_presentatie_roostermachine.wav</property>
  <property name="audio_index">0</property>
  <property name="video_index">-1</property>
  <property name="mute_on_pause">0</property>
  <property name="mlt_service">avformat-novalidate</property>
  <property name="meta.media.nb_streams">1</property>
  <property name="meta.media.0.stream.type">audio</property>
  <property name="meta.media.0.codec.sample_fmt">s16</property>
  <property name="meta.media.0.codec.sample_rate">44100</property>
  <property name="meta.media.0.codec.channels">2</property>
  <property name="meta.media.0.codec.name">pcm_s16le</property>
  <property name="meta.media.0.codec.long_name">PCM signed 16-bit little-endian</property>
  <property name="meta.media.0.codec.bit_rate">1411200</property>
  <property name="seekable">1</property>
  <property name="kdenlive:clipname"/>
  <property name="kdenlive:folderid">-1</property>
  <property name="kdenlive:id">6</property>
  <property name="kdenlive:file_size">6325912</property>
  <property name="kdenlive:file_hash">a40761760c0695393d67554fca316732</property>
  <property name="kdenlive:audio_max0">221</property>
  <property name="xml">was here</property>
  <property name="set.test_audio">0</property>
  <property name="set.test_image">1</property>
 </producer>
 <producer id="producer13" in="00:00:00.000" out="00:01:02.600">
  <property name="length">3757</property>
  <property name="eof">pause</property>
  <property name="resource">C:/Users/joepv/OneDrive - Nuovo/PWS 2021 Joep Sam/pws_resultaten0001.mkv</property>
  <property name="audio_index">0</property>
  <property name="video_index">-1</property>
  <property name="mute_on_pause">0</property>
  <property name="mlt_service">avformat-novalidate</property>
  <property name="meta.media.nb_streams">1</property>
  <property name="meta.media.0.stream.type">audio</property>
  <property name="meta.media.0.codec.sample_fmt">flt</property>
  <property name="meta.media.0.codec.sample_rate">48000</property>
  <property name="meta.media.0.codec.channels">1</property>
  <property name="meta.media.0.codec.name">pcm_f32le</property>
  <property name="meta.media.0.codec.long_name">PCM 32-bit floating point little-endian</property>
  <property name="meta.media.0.codec.bit_rate">1536000</property>
  <property name="meta.attr.0.stream.ENCODER.markup">Lavc58.134.100 pcm_f32le</property>
  <property name="meta.attr.0.stream.DURATION.markup">00:01:02.613000000</property>
  <property name="meta.attr.ENCODER.markup">Lavf58.76.100</property>
  <property name="seekable">1</property>
  <property name="kdenlive:clipname">pws_resultaten0001.mkv</property>
  <property name="kdenlive:folderid">-1</property>
  <property name="kdenlive:id">8</property>
  <property name="kdenlive:file_size">771905</property>
  <property name="kdenlive:file_hash">b19c6c04073846771542679847235abd</property>
  <property name="kdenlive:audio_max0">228</property>
  <property name="xml">was here</property>
  <property name="set.test_audio">0</property>
  <property name="set.test_image">1</property>
 </producer>
 <producer id="producer14" in="00:00:00.000" out="00:01:53.100">
  <property name="length">6787</property>
  <property name="eof">pause</property>
  <property name="resource">C:/Users/joepv/OneDrive - Nuovo/PWS 2021 Joep Sam/pws_discussie0001.mkv</property>
  <property name="audio_index">0</property>
  <property name="video_index">-1</property>
  <property name="mute_on_pause">0</property>
  <property name="mlt_service">avformat-novalidate</property>
  <property name="meta.media.nb_streams">1</property>
  <property name="meta.media.0.stream.type">audio</property>
  <property name="meta.media.0.codec.sample_fmt">flt</property>
  <property name="meta.media.0.codec.sample_rate">48000</property>
  <property name="meta.media.0.codec.channels">1</property>
  <property name="meta.media.0.codec.name">pcm_f32le</property>
  <property name="meta.media.0.codec.long_name">PCM 32-bit floating point little-endian</property>
  <property name="meta.media.0.codec.bit_rate">1536000</property>
  <property name="meta.attr.0.stream.ENCODER.markup">Lavc58.134.100 pcm_f32le</property>
  <property name="meta.attr.0.stream.DURATION.markup">00:01:53.109000000</property>
  <property name="meta.attr.ENCODER.markup">Lavf58.76.100</property>
  <property name="seekable">1</property>
  <property name="kdenlive:clipname">pws_discussie0001.mkv</property>
  <property name="kdenlive:folderid">-1</property>
  <property name="kdenlive:id">9</property>
  <property name="kdenlive:file_size">1394483</property>
  <property name="kdenlive:file_hash">aa759de3bdd6b1f75455dec3596686be</property>
  <property name="kdenlive:audio_max0">205</property>
  <property name="xml">was here</property>
  <property name="set.test_audio">0</property>
  <property name="set.test_image">1</property>
 </producer>
 <producer id="producer15" in="00:00:00.000" out="00:01:14.700">
  <property name="length">4483</property>
  <property name="eof">pause</property>
  <property name="resource">C:/Users/joepv/Downloads/pws_conclusie.ogg</property>
  <property name="meta.media.nb_streams">1</property>
  <property name="meta.media.0.stream.type">audio</property>
  <property name="meta.media.0.codec.sample_fmt">fltp</property>
  <property name="meta.media.0.codec.sample_rate">48000</property>
  <property name="meta.media.0.codec.channels">1</property>
  <property name="meta.media.0.codec.name">opus</property>
  <property name="meta.media.0.codec.long_name">Opus</property>
  <property name="meta.media.0.codec.bit_rate">0</property>
  <property name="seekable">1</property>
  <property name="audio_index">0</property>
  <property name="video_index">-1</property>
  <property name="mute_on_pause">0</property>
  <property name="mlt_service">avformat-novalidate</property>
  <property name="kdenlive:clipname"/>
  <property name="kdenlive:folderid">-1</property>
  <property name="kdenlive:id">10</property>
  <property name="kdenlive:file_size">162545</property>
  <property name="kdenlive:file_hash">10c0f3132e1c70a5e217c52b1f3a0fb2</property>
  <property name="kdenlive:audio_max0">196</property>
  <property name="xml">was here</property>
  <property name="set.test_audio">0</property>
  <property name="set.test_image">1</property>
 </producer>
 <playlist id="playlist0">
  <property name="kdenlive:audio_track">1</property>
  <entry producer="producer9" in="00:00:14.717" out="00:00:18.917">
   <property name="kdenlive:id">2</property>
  </entry>
  <blank length="00:00:02.200"/>
  <entry producer="producer9" in="00:00:33.283" out="00:01:44.367">
   <property name="kdenlive:id">2</property>
  </entry>
  <entry producer="producer10" in="00:00:00.000" out="00:01:18.517">
   <property name="kdenlive:id">4</property>
  </entry>
  <entry producer="producer11" in="00:00:00.000" out="00:01:57.433">
   <property name="kdenlive:id">5</property>
  </entry>
  <blank length="00:00:00.883"/>
  <entry producer="producer12" in="00:00:00.000" out="00:00:35.833">
   <property name="kdenlive:id">6</property>
  </entry>
  <entry producer="producer13" in="00:00:00.000" out="00:00:57.300">
   <property name="kdenlive:id">8</property>
  </entry>
  <entry producer="producer14" in="00:00:11.150" out="00:01:50.867">
   <property name="kdenlive:id">9</property>
  </entry>
  <entry producer="producer15" in="00:00:03.333" out="00:01:14.700">
   <property name="kdenlive:id">10</property>
  </entry>
 </playlist>
 <playlist id="playlist1">
  <property name="kdenlive:audio_track">1</property>
 </playlist>
 <tractor id="tractor0" in="00:00:00.000" out="00:08:58.650">
  <property name="kdenlive:audio_track">1</property>
  <property name="kdenlive:trackheight">69</property>
  <property name="kdenlive:timeline_active">1</property>
  <property name="kdenlive:collapsed">0</property>
  <property name="kdenlive:thumbs_format"/>
  <property name="kdenlive:audio_rec"/>
  <track hide="video" producer="playlist0"/>
  <track hide="video" producer="playlist1"/>
  <filter id="filter3">
   <property name="window">75</property>
   <property name="max_gain">20dB</property>
   <property name="mlt_service">volume</property>
   <property name="internal_added">237</property>
   <property name="disable">1</property>
  </filter>
  <filter id="filter4">
   <property name="channel">-1</property>
   <property name="mlt_service">panner</property>
   <property name="internal_added">237</property>
   <property name="start">0.5</property>
   <property name="disable">1</property>
  </filter>
  <filter id="filter0">
   <property name="iec_scale">0</property>
   <property name="mlt_service">audiolevel</property>
   <property name="disable">1</property>
  </filter>
 </tractor>
 <producer id="producer16" in="00:00:00.000" out="00:08:58.583">
  <property name="length">32316</property>
  <property name="eof">pause</property>
  <property name="resource">videos/Presentation.mp4</property>
  <property name="audio_index">-1</property>
  <property name="video_index">0</property>
  <property name="mute_on_pause">0</property>
  <property name="mlt_service">avformat-novalidate</property>
  <property name="seekable">1</property>
  <property name="aspect_ratio">1</property>
  <property name="kdenlive:clipname"/>
  <property name="kdenlive:folderid">-1</property>
  <property name="kdenlive:id">3</property>
  <property name="kdenlive:file_size">2004540</property>
  <property name="kdenlive:orig_service">avformat-novalidate</property>
  <property name="kdenlive:file_hash">9f14b0a26964e47978135c8ae2a9863a</property>
  <property name="xml">was here</property>
  <property name="meta.media.nb_streams">1</property>
  <property name="meta.media.0.stream.type">video</property>
  <property name="meta.media.0.stream.frame_rate">15</property>
  <property name="meta.media.0.stream.sample_aspect_ratio">0</property>
  <property name="meta.media.0.codec.width">854</property>
  <property name="meta.media.0.codec.height">480</property>
  <property name="meta.media.0.codec.rotate">0</property>
  <property name="meta.media.0.codec.pix_fmt">yuv420p</property>
  <property name="meta.media.0.codec.sample_aspect_ratio">0</property>
  <property name="meta.media.0.codec.colorspace">601</property>
  <property name="meta.media.0.codec.name">h264</property>
  <property name="meta.media.0.codec.long_name">H.264 / AVC / MPEG-4 AVC / MPEG-4 part 10</property>
  <property name="meta.media.0.codec.bit_rate">28367</property>
  <property name="meta.attr.0.stream.handler_name.markup">VideoHandler</property>
  <property name="meta.attr.0.stream.vendor_id.markup">[0][0][0][0]</property>
  <property name="meta.attr.major_brand.markup">isom</property>
  <property name="meta.attr.minor_version.markup">512</property>
  <property name="meta.attr.compatible_brands.markup">isomiso2avc1mp41</property>
  <property name="meta.attr.encoder.markup">Lavf59.10.100</property>
  <property name="meta.media.sample_aspect_num">1</property>
  <property name="meta.media.sample_aspect_den">1</property>
  <property name="meta.media.frame_rate_num">15</property>
  <property name="meta.media.frame_rate_den">1</property>
  <property name="meta.media.colorspace">601</property>
  <property name="meta.media.color_trc">2</property>
  <property name="meta.media.has_b_frames">2</property>
  <property name="meta.media.width">854</property>
  <property name="meta.media.height">480</property>
  <property name="meta.media.color_range">mpeg</property>
  <property name="set.test_audio">1</property>
  <property name="set.test_image">0</property>
  <property name="meta.media.top_field_first">0</property>
  <property name="meta.media.progressive">1</property>
 </producer>
 <playlist id="playlist2">
  <entry producer="producer16" in="00:00:00.000" out="00:08:58.583">
   <property name="kdenlive:id">3</property>
  </entry>
 </playlist>
 <playlist id="playlist3"/>
 <tractor id="tractor1" in="00:00:00.000" out="00:08:58.583">
  <property name="kdenlive:trackheight">69</property>
  <property name="kdenlive:timeline_active">1</property>
  <property name="kdenlive:collapsed">0</property>
  <property name="kdenlive:thumbs_format"/>
  <property name="kdenlive:audio_rec"/>
  <track hide="audio" producer="playlist2"/>
  <track hide="audio" producer="playlist3"/>
 </tractor>
 <tractor id="tractor2" in="00:00:00.000" out="00:17:18.667">
  <track producer="black_track"/>
  <track producer="tractor0"/>
  <track producer="tractor1"/>
  <transition id="transition0">
   <property name="a_track">0</property>
   <property name="b_track">1</property>
   <property name="mlt_service">mix</property>
   <property name="kdenlive_id">mix</property>
   <property name="internal_added">237</property>
   <property name="always_active">1</property>
   <property name="accepts_blanks">1</property>
   <property name="sum">1</property>
  </transition>
  <transition id="transition1">
   <property name="a_track">0</property>
   <property name="b_track">2</property>
   <property name="version">0.9</property>
   <property name="mlt_service">frei0r.cairoblend</property>
   <property name="kdenlive_id">frei0r.cairoblend</property>
   <property name="internal_added">237</property>
   <property name="always_active">1</property>
  </transition>
  <filter id="filter6">
   <property name="window">75</property>
   <property name="max_gain">20dB</property>
   <property name="mlt_service">volume</property>
   <property name="internal_added">237</property>
   <property name="disable">1</property>
  </filter>
  <filter id="filter7">
   <property name="channel">-1</property>
   <property name="mlt_service">panner</property>
   <property name="internal_added">237</property>
   <property name="start">0.5</property>
   <property name="disable">1</property>
  </filter>
  <filter id="filter1">
   <property name="iec_scale">0</property>
   <property name="mlt_service">audiolevel</property>
   <property name="disable">1</property>
  </filter>
 </tractor>
</mlt>
